<svg width="61" height="61" viewBox="0 0 61 61" fill="none" xmlns="http://www.w3.org/2000/svg">
<rect width="61" height="61" rx="30.5" fill="#187B8B"/>
<path d="M23.2523 13.1224C21.3903 13.2102 20.1188 13.5074 19.0071 13.9442C17.8567 14.3925 16.8816 14.9942 15.9114 15.9679C14.9411 16.9416 14.3437 17.9174 13.8985 19.0696C13.4676 20.1837 13.1757 21.4563 13.0935 23.3193C13.0112 25.1824 12.993 25.7812 13.0021 30.5336C13.0112 35.2859 13.0322 35.8816 13.1225 37.7485C13.2114 39.6101 13.5075 40.8813 13.9443 41.9933C14.3934 43.1437 14.9943 44.1185 15.9684 45.0891C16.9425 46.0596 17.9176 46.6557 19.0726 47.1016C20.1856 47.5317 21.4586 47.825 23.3213 47.9066C25.184 47.9881 25.7836 48.007 30.5345 47.9979C35.2855 47.9888 35.8836 47.9678 37.7502 47.8793C39.6167 47.7907 40.8813 47.4925 41.9936 47.0578C43.1441 46.6077 44.1195 46.0078 45.0894 45.0334C46.0593 44.059 46.6564 43.0825 47.1012 41.9296C47.5324 40.8166 47.8254 39.5436 47.9062 37.6823C47.9878 35.8144 48.007 35.218 47.9979 30.4664C47.9888 25.7147 47.9675 25.119 47.8789 23.2528C47.7904 21.3866 47.4939 20.1193 47.0575 19.0066C46.6077 17.8562 46.0075 16.8821 45.0338 15.9109C44.06 14.9396 43.0828 14.3428 41.9303 13.899C40.8166 13.4682 39.5443 13.1745 37.6816 13.094C35.8189 13.0135 35.2193 12.9929 30.4666 13.002C25.7139 13.0111 25.1189 13.0314 23.2523 13.1224ZM23.4567 44.7583C21.7505 44.6841 20.824 44.4006 20.2066 44.1633C19.389 43.8483 18.8066 43.4675 18.1913 42.8581C17.576 42.2488 17.198 41.6643 16.8788 40.8484C16.639 40.231 16.3503 39.3056 16.2705 37.5994C16.1837 35.7552 16.1655 35.2015 16.1553 30.5294C16.1452 25.8572 16.163 25.3042 16.2439 23.4593C16.3167 21.7545 16.6019 20.827 16.8389 20.2099C17.1539 19.3913 17.5333 18.8099 18.144 18.195C18.7548 17.58 19.3375 17.2013 20.1541 16.8821C20.7708 16.6413 21.6962 16.355 23.4018 16.2738C25.2474 16.1863 25.8004 16.1688 30.4719 16.1587C35.1434 16.1485 35.6978 16.166 37.544 16.2472C39.2489 16.3214 40.1768 16.6039 40.7931 16.8422C41.6111 17.1572 42.1931 17.5356 42.8081 18.1474C43.423 18.7592 43.8021 19.3398 44.1213 20.1581C44.3624 20.7731 44.6487 21.6981 44.7292 23.4047C44.8171 25.2503 44.837 25.8036 44.8454 30.4748C44.8538 35.1459 44.8374 35.7006 44.7565 37.5448C44.682 39.251 44.3992 40.1778 44.1615 40.7959C43.8465 41.6132 43.4668 42.1959 42.8557 42.8105C42.2446 43.4251 41.6625 43.8038 40.8456 44.1231C40.2296 44.3635 39.3031 44.6505 37.599 44.7317C35.7534 44.8185 35.2004 44.8367 30.5272 44.8469C25.8539 44.857 25.3027 44.8381 23.4571 44.7583M37.7232 21.1469C37.7239 21.5622 37.8478 21.9681 38.0791 22.3131C38.3105 22.658 38.639 22.9266 39.023 23.0849C39.407 23.2432 39.8294 23.284 40.2366 23.2023C40.6439 23.1205 41.0177 22.9198 41.3109 22.6256C41.6041 22.3313 41.8034 21.9567 41.8837 21.5492C41.964 21.1417 41.9216 20.7195 41.7619 20.336C41.6022 19.9526 41.3324 19.6251 40.9865 19.395C40.6407 19.1649 40.2344 19.0425 39.819 19.0434C39.2622 19.0445 38.7286 19.2667 38.3356 19.6612C37.9426 20.0556 37.7223 20.59 37.7232 21.1469ZM21.5146 30.5175C21.5244 35.4805 25.555 39.4946 30.517 39.4852C35.479 39.4757 39.496 35.4455 39.4865 30.4825C39.4771 25.5194 35.4454 21.5042 30.4827 21.514C25.52 21.5238 21.5051 25.5551 21.5146 30.5175ZM24.6667 30.5112C24.6644 29.3574 25.0043 28.2289 25.6434 27.2683C26.2825 26.3077 27.1921 25.5582 28.2571 25.1146C29.3222 24.671 30.4949 24.5531 31.6269 24.776C32.759 24.9988 33.7995 25.5524 34.6169 26.3666C35.4344 27.1808 35.992 28.2191 36.2193 29.3502C36.4467 30.4814 36.3335 31.6545 35.8941 32.7213C35.4547 33.7881 34.7088 34.7006 33.7507 35.3435C32.7927 35.9864 31.6655 36.3308 30.5118 36.3331C29.7457 36.3347 28.9868 36.1854 28.2784 35.8936C27.57 35.6019 26.926 35.1735 26.3833 34.6329C25.8405 34.0922 25.4095 33.45 25.115 32.7428C24.8204 32.0355 24.6681 31.2772 24.6667 30.5112Z" fill="#FBFEFE"/>
</svg>
