<svg width="61" height="61" viewBox="0 0 61 61" fill="none" xmlns="http://www.w3.org/2000/svg">
<rect width="61" height="61" rx="30.5" fill="#187B8B"/>
<path d="M42.8217 42.8224H37.6358V34.7007C37.6358 32.7641 37.6012 30.271 34.9386 30.271C32.2376 30.271 31.8243 32.381 31.8243 34.5597V42.8218H26.6384V26.1205H31.6168V28.4029H31.6865C32.1848 27.551 32.9047 26.8502 33.7697 26.3751C34.6347 25.9 35.6124 25.6684 36.5986 25.705C41.8547 25.705 42.8238 29.1624 42.8238 33.6603L42.8217 42.8224ZM20.787 23.8375C20.1917 23.8376 19.6099 23.6612 19.1149 23.3306C18.6199 23 18.2341 22.5301 18.0063 21.9802C17.7784 21.4303 17.7187 20.8252 17.8347 20.2414C17.9507 19.6575 18.2372 19.1212 18.658 18.7003C19.0788 18.2793 19.615 17.9926 20.1988 17.8764C20.7825 17.7601 21.3876 17.8196 21.9376 18.0473C22.4875 18.275 22.9576 18.6606 23.2884 19.1555C23.6191 19.6504 23.7958 20.2322 23.7959 20.8274C23.7959 21.2226 23.7182 21.614 23.567 21.9792C23.4158 22.3443 23.1942 22.6761 22.9148 22.9557C22.6354 23.2352 22.3037 23.4569 21.9386 23.6082C21.5735 23.7595 21.1822 23.8374 20.787 23.8375ZM23.3799 42.8224H18.1886V26.1205H23.3799V42.8224ZM45.4071 13.0024H15.5827C14.9058 12.9947 14.2535 13.2562 13.7692 13.7292C13.2849 14.2023 13.0083 14.8483 13 15.5252V45.4743C13.008 46.1516 13.2845 46.798 13.7687 47.2715C14.253 47.7451 14.9054 48.007 15.5827 47.9998H45.4071C46.0857 48.0083 46.7399 47.7471 47.2261 47.2736C47.7123 46.8001 47.9906 46.1529 48 45.4743V15.523C47.9903 14.8447 47.7118 14.198 47.2256 13.725C46.7394 13.252 46.0853 12.9913 45.4071 13.0002" fill="#FBFEFE"/>
</svg>
