<svg width="760" height="420" viewBox="0 0 760 420" fill="none" xmlns="http://www.w3.org/2000/svg">
<g clip-path="url(#clip0_756_7)">
<path d="M698.744 48.8525H759.906V0H686.888C656.872 0 632.502 24.3792 632.502 54.4061V161.43C632.502 189.386 655.179 212.165 683.219 212.165H759.906V163.595H698.744C688.959 163.595 681.055 155.688 681.055 145.899V66.4545C681.055 56.6652 688.959 48.7584 698.744 48.7584V48.8525Z" fill="#64B333"/>
<path d="M262.806 72.667V47.0641C262.806 36.9924 270.992 28.8033 281.06 28.8033H301.008C314.181 28.8033 324.908 39.5339 324.908 52.7118V90.3631C324.908 90.3631 324.626 91.022 324.249 91.022H281.06C270.992 91.022 262.806 82.8328 262.806 72.7611V72.667Z" fill="#E65234"/>
<path d="M0 420V112.577H107.644C144.905 112.577 173.228 119.731 192.517 134.038C211.806 148.346 221.404 169.242 221.404 196.822C221.404 211.882 217.546 225.154 209.83 236.638C202.115 248.122 191.294 256.499 177.556 261.864C193.27 265.818 205.69 273.725 214.817 285.679C223.85 297.633 228.461 312.317 228.461 329.637C228.461 359.193 219.052 381.596 200.139 396.75C181.32 411.999 154.409 419.717 119.5 420H0ZM63.3255 241.345H110.184C142.082 240.78 158.078 228.072 158.078 203.128C158.078 189.198 154.032 179.126 145.94 173.007C137.848 166.889 125.051 163.783 107.644 163.783H63.3255V241.25V241.345ZM63.3255 286.15V369.076H117.524C132.391 369.076 144.058 365.5 152.433 358.44C160.807 351.38 164.947 341.497 164.947 328.978C164.947 300.834 150.363 286.526 121.288 286.15H63.2314H63.3255Z" fill="#356C75"/>
<path d="M325.567 420H262.241V112.577H325.567V420Z" fill="#356C75"/>
<path d="M438.668 311.658V420H375.343V112.577H495.219C518.272 112.577 538.596 116.813 556.098 125.284C573.6 133.756 587.055 145.71 596.559 161.241C605.968 176.773 610.673 194.469 610.673 214.33C610.673 244.451 600.322 268.171 579.716 285.585C559.109 302.999 530.598 311.658 494.09 311.658H438.574H438.668ZM438.668 260.358H495.219C511.968 260.358 524.765 256.405 533.515 248.498C542.266 240.591 546.689 229.39 546.689 214.706C546.689 200.022 542.266 187.503 533.421 178.185C524.576 168.866 512.344 164.159 496.725 163.783H438.668V260.264V260.358Z" fill="#356C75"/>
</g>
<defs>
<clipPath id="clip0_756_7">
<rect width="760" height="420" fill="white"/>
</clipPath>
</defs>
</svg>
