<svg width="61" height="61" viewBox="0 0 61 61" fill="none" xmlns="http://www.w3.org/2000/svg">
<rect width="61" height="61" rx="30.5" fill="#187B8B"/>
<path d="M30.5 45.2446C30.5025 45.2446 43.6342 45.2448 46.9092 44.3647C48.7163 43.8801 50.139 42.4525 50.6221 40.6401C51.4967 37.3662 51.5 30.5487 51.5 30.5005C51.5 30.5005 51.4997 23.6461 50.6221 20.3608C50.1391 18.5483 48.7163 17.1207 46.9092 16.6362C43.6342 15.7559 30.5025 15.7554 30.5 15.7554C30.5 15.7554 17.3662 15.7558 14.0908 16.6362C12.2838 17.1207 10.8609 18.5482 10.3779 20.3608C9.50033 23.6461 9.5 30.5005 9.5 30.5005C9.50001 30.5487 9.5034 37.3662 10.3779 40.6401C10.8609 42.4525 12.2838 43.8801 14.0908 44.3647C17.3663 45.2449 30.5 45.2446 30.5 45.2446ZM26.2061 24.2769L37.1836 30.5005L26.2061 36.7231V24.2769Z" fill="#FBFEFE"/>
</svg>
